<svg version="1.2" xmlns="http://www.w3.org/2000/svg" viewBox="0 0 512 512" width="512" height="512">
	<title>deamtest-svg</title>
	<style>
		.s0 { fill: #6bbe66 } 
		.s1 { fill: #ff4141 } 
		.s2 { fill: #00a1f1 } 
	</style>
	<path id="Layer" class="s0" d="m235.9 459.2c-24.8 19.1-55.8 30.5-89.5 30.5-80.9 0-146.4-64.1-146.4-144.8 0-44 17.1-90.8 63.4-115.3 4.6 16.1 15.1 7.8 18.5 32.4 2.8 19.6-5 72.7 12.5 83.3 23.4 14.2 76.6-2 103.3 6.5-0.3 3.8 0 7.1 0 10.9 0 44.4 10.7 65.8 38.2 96.5z"/>
	<path id="Layer" class="s1" d="m511.5 343.7c-1 80.8-65.5 146.3-146.4 146.3-80.8 0-144.7-52.8-144.7-133.6q0-2.5 0.1-5.1c8.4 1.3 41.7-0.2 54.9-0.1 47.9 0.6 135.4 4.5 145.4-4 32.5-27.5 15.4-89.9 22.7-122.2 56.9 20 68.5 78.5 68 118.7z"/>
	<path id="Layer" class="s2" d="m343.8 201.5c-13.6 0-24.7-11.7-24.7-25.9 0-14.3 11.1-26 24.7-26h77.2v-21.6c0-13.9-10.8-25.3-24-25.3h-268.8c-13.2 0-24 11.4-24 25.3v174.7c0 13.9 10.8 25.2 24 25.2h268.8c13.2 0 24-11.3 24-25.2v-101.2zm-16.4-25.9c0 4.4 1.8 8.7 5 11.9 3.1 3.2 7.4 4.9 11.9 4.9 4.5 0 8.8-1.7 11.9-4.9 3.2-3.2 5-7.5 5-11.9 0-4.5-1.8-8.8-5-12-3.1-3.1-7.4-4.9-11.9-4.9-4.5 0-8.8 1.8-11.9 4.9-3.2 3.2-5 7.5-5 12zm-238.2-62.5c0-13.9 11.4-25.3 25.3-25.3h260.5l-21.8-63.7c-4.5-13.2-19-20.2-32.1-15.8l-252 86.5c-13.1 4.4-20.2 18.9-15.7 32.1l35.8 104.6z"/>
</svg>